<svg width="66" height="66" viewBox="0 0 66 66" fill="none" xmlns="http://www.w3.org/2000/svg">
<rect x="5" y="5" width="56" height="56" rx="28" fill="#BCE0FD"/>
<path fill-rule="evenodd" clip-rule="evenodd" d="M28.333 22.5C26.4 22.5 24.833 24.067 24.833 26V40C24.833 41.933 26.4 43.5 28.333 43.5H37.6663C39.5993 43.5 41.1663 41.933 41.1663 40V26C41.1663 24.067 39.5993 22.5 37.6663 22.5H28.333ZM28.333 24.8333C27.6887 24.8333 27.1663 25.3557 27.1663 26V27.75C27.1663 28.3943 27.6887 28.9167 28.333 28.9167H37.6663C38.3107 28.9167 38.833 28.3943 38.833 27.75V26C38.833 25.3557 38.3107 24.8333 37.6663 24.8333H28.333ZM28.333 38.8333C27.6887 38.8333 27.1663 39.3557 27.1663 40C27.1663 40.6443 27.6887 41.1667 28.333 41.1667H32.9997C33.644 41.1667 34.1663 40.6443 34.1663 40C34.1663 39.3557 33.644 38.8333 32.9997 38.8333H28.333ZM28.333 33C28.9773 33 29.4997 32.4777 29.4997 31.8333C29.4997 31.189 28.9773 30.6667 28.333 30.6667C27.6887 30.6667 27.1663 31.189 27.1663 31.8333C27.1663 32.4777 27.6887 33 28.333 33ZM29.4997 35.9167C29.4997 36.561 28.9773 37.0833 28.333 37.0833C27.6887 37.0833 27.1663 36.561 27.1663 35.9167C27.1663 35.2723 27.6887 34.75 28.333 34.75C28.9773 34.75 29.4997 35.2723 29.4997 35.9167ZM32.9997 33C33.644 33 34.1663 32.4777 34.1663 31.8333C34.1663 31.189 33.644 30.6667 32.9997 30.6667C32.3553 30.6667 31.833 31.189 31.833 31.8333C31.833 32.4777 32.3553 33 32.9997 33ZM34.1663 35.9167C34.1663 36.561 33.644 37.0833 32.9997 37.0833C32.3553 37.0833 31.833 36.561 31.833 35.9167C31.833 35.2723 32.3553 34.75 32.9997 34.75C33.644 34.75 34.1663 35.2723 34.1663 35.9167ZM37.6663 33C38.3107 33 38.833 32.4777 38.833 31.8333C38.833 31.189 38.3107 30.6667 37.6663 30.6667C37.022 30.6667 36.4997 31.189 36.4997 31.8333C36.4997 32.4777 37.022 33 37.6663 33ZM38.833 35.9167C38.833 36.561 38.3107 37.0833 37.6663 37.0833C37.022 37.0833 36.4997 36.561 36.4997 35.9167C36.4997 35.2723 37.022 34.75 37.6663 34.75C38.3107 34.75 38.833 35.2723 38.833 35.9167ZM37.6663 41.1667C38.3107 41.1667 38.833 40.6443 38.833 40C38.833 39.3557 38.3107 38.8333 37.6663 38.8333C37.022 38.8333 36.4997 39.3557 36.4997 40C36.4997 40.6443 37.022 41.1667 37.6663 41.1667Z" fill="#1875ED"/>
<rect x="5" y="5" width="56" height="56" rx="28" stroke="#F1F9FF" stroke-width="10"/>
</svg>
