<svg width="16" height="16" viewBox="0 0 16 16" fill="none" xmlns="http://www.w3.org/2000/svg">
<path fill-rule="evenodd" clip-rule="evenodd" d="M1.35466 8C1.35446 7.91079 1.33694 7.82167 1.30209 7.73769L0.821133 6.57317C0.719522 6.32793 0.667035 6.06466 0.666992 5.7992C0.66695 5.53359 0.719243 5.27057 0.820884 5.02518C0.922526 4.77979 1.07152 4.55682 1.25937 4.36904C1.44716 4.1813 1.67009 4.03239 1.91544 3.93082L3.07806 3.44923C3.24643 3.37961 3.38073 3.24592 3.45082 3.07773L3.93252 1.91476C4.13771 1.41937 4.53129 1.02578 5.02668 0.820575C5.52207 0.615371 6.07868 0.615371 6.57407 0.820575L7.73614 1.30194C7.90477 1.37156 8.09434 1.37147 8.26285 1.30155L8.26417 1.301L9.42727 0.821283C9.92249 0.616358 10.4792 0.616291 10.9744 0.8214C11.4697 1.02656 11.8632 1.42004 12.0684 1.91531L12.5385 3.05035C12.5427 3.05931 12.5467 3.0684 12.5505 3.07761C12.6202 3.24617 12.7539 3.38016 12.9223 3.4502L14.0856 3.93207C14.581 4.13728 14.9746 4.53087 15.1798 5.02626C15.385 5.52165 15.385 6.07827 15.1798 6.57366L14.6982 7.73632C14.6632 7.82077 14.6457 7.91073 14.6457 8.00021C14.6457 8.08968 14.6632 8.17924 14.6982 8.26369L15.1798 9.42635C15.385 9.92174 15.385 10.4784 15.1798 10.9737C14.9746 11.4691 14.581 11.8627 14.0856 12.0679L12.9223 12.5498C12.7539 12.6198 12.6202 12.7538 12.5505 12.9224C12.5467 12.9316 12.5427 12.9407 12.5385 12.9497L12.0684 14.0847C11.8632 14.58 11.4697 14.9734 10.9744 15.1786C10.4792 15.3837 9.92249 15.3837 9.42727 15.1787L8.26417 14.699L8.26285 14.6985C8.09434 14.6285 7.90477 14.6285 7.73614 14.6981L6.57407 15.1794C6.07868 15.3846 5.52207 15.3846 5.02668 15.1794C4.53129 14.9742 4.13771 14.5806 3.93252 14.0852L3.45082 12.9223C3.38073 12.7541 3.24643 12.6204 3.07806 12.5508L1.91544 12.0692C1.67009 11.9676 1.44716 11.8187 1.25937 11.631C1.07152 11.4432 0.922526 11.2202 0.820884 10.9748C0.719243 10.7294 0.66695 10.4664 0.666992 10.2008C0.667035 9.93535 0.719522 9.67208 0.821133 9.42684L1.30209 8.26232C1.33694 8.17834 1.35446 8.08922 1.35466 8ZM10.8051 6.80474C11.0654 6.54439 11.0654 6.12228 10.8051 5.86193C10.5447 5.60158 10.1226 5.60158 9.86226 5.86193L7.33366 8.39053L6.47173 7.5286C6.21138 7.26825 5.78927 7.26825 5.52892 7.5286C5.26857 7.78895 5.26857 8.21106 5.52892 8.47141L6.86225 9.80474C7.1226 10.0651 7.54471 10.0651 7.80506 9.80474L10.8051 6.80474Z" fill="#12B76A"/>
</svg>
