<svg width="25" height="24" viewBox="0 0 25 24" fill="none" xmlns="http://www.w3.org/2000/svg">
<path d="M6.5 5H14.5C15.0523 5 15.5 5.44772 15.5 6V7H17.5V6C17.5 4.34315 16.1569 3 14.5 3H6.5C4.84315 3 3.5 4.34315 3.5 6V14C3.5 15.6569 4.84315 17 6.5 17H7.5V15H6.5C5.94772 15 5.5 14.5523 5.5 14V6C5.5 5.44772 5.94772 5 6.5 5Z" fill="#6F767E"/>
<path d="M18.5 9C19.0523 9 19.5 9.44772 19.5 10V18C19.5 18.5523 19.0523 19 18.5 19H10.5C9.94772 19 9.5 18.5523 9.5 18V10C9.5 9.44772 9.94772 9 10.5 9H18.5ZM10.5 7C8.84315 7 7.5 8.34315 7.5 10V18C7.5 19.6569 8.84315 21 10.5 21H18.5C20.1569 21 21.5 19.6569 21.5 18V10C21.5 8.34315 20.1569 7 18.5 7H10.5Z" fill="#6F767E"/>
</svg>
