<svg width="56" height="56" viewBox="0 0 56 56" fill="none" xmlns="http://www.w3.org/2000/svg">
<rect x="4" y="4" width="48" height="48" rx="24" fill="#D1FADF"/>
<path d="M34 26L30 22M18.5 37.5L21.8844 37.124C22.2979 37.078 22.5046 37.055 22.6978 36.9925C22.8693 36.937 23.0324 36.8586 23.1829 36.7594C23.3525 36.6475 23.4995 36.5005 23.7937 36.2063L37 23C38.1046 21.8954 38.1046 20.1046 37 19C35.8955 17.8954 34.1046 17.8954 33 19L19.7937 32.2063C19.4995 32.5005 19.3525 32.6475 19.2406 32.8171C19.1414 32.9676 19.063 33.1307 19.0075 33.3022C18.945 33.4954 18.922 33.7021 18.876 34.1156L18.5 37.5Z" stroke="#039855" stroke-width="2" stroke-linecap="round" stroke-linejoin="round"/>
<rect x="4" y="4" width="48" height="48" rx="24" stroke="#ECFDF3" stroke-width="8"/>
</svg>
