<svg width="56" height="56" viewBox="0 0 56 56" fill="none" xmlns="http://www.w3.org/2000/svg">
<rect x="4" y="4" width="48" height="48" rx="24" fill="#FEE4E2"/>
<path d="M27.9978 25V29M27.9978 33H28.0078M26.6131 19.8917L18.3882 34.0983C17.932 34.8863 17.7039 35.2803 17.7376 35.6037C17.767 35.8857 17.9148 36.142 18.1442 36.3088C18.4071 36.5 18.8624 36.5 19.7729 36.5H36.2227C37.1332 36.5 37.5885 36.5 37.8514 36.3088C38.0808 36.142 38.2286 35.8857 38.258 35.6037C38.2917 35.2803 38.0636 34.8863 37.6074 34.0983L29.3825 19.8917C28.9279 19.1065 28.7006 18.714 28.4041 18.5821C28.1454 18.4671 27.8502 18.4671 27.5915 18.5821C27.295 18.714 27.0677 19.1065 26.6131 19.8917Z" stroke="#D92D20" stroke-width="2" stroke-linecap="round" stroke-linejoin="round"/>
<rect x="4" y="4" width="48" height="48" rx="24" stroke="#FEF3F2" stroke-width="8"/>
</svg>
