<svg width="48" height="48" viewBox="0 0 48 48" fill="none" xmlns="http://www.w3.org/2000/svg">
<rect width="48" height="48" rx="24" fill="#2699FB"/>
<g clip-path="url(#clip0_2461_43743)">
<path d="M12.7364 35.3925C12.5491 35.3106 12.3862 35.1973 12.2591 35.0608C12.132 34.9243 12.0436 34.7682 12 34.6021C12.0006 34.4141 12.0564 34.2285 12.163 34.0606C12.2695 33.8928 12.4239 33.7469 12.6138 33.6347C13.0272 33.579 13.4516 33.6089 13.846 33.722C14.236 34.0013 14.5682 34.3279 14.8302 34.6894C14.9814 34.8527 15.1731 34.99 15.3935 35.0925C15.6138 35.1949 15.8581 35.2605 16.1116 35.2853C16.3651 35.31 16.6223 35.2931 16.8674 35.236C17.1124 35.179 17.3401 35.0831 17.5366 34.9536C18.5588 34.2646 19.2898 33.3428 19.6306 32.3134C20.3669 30.205 21.1078 28.1815 21.7216 26.0731V25.7216L15.1977 25.0173L15.4457 23.6972L22.2144 24.4003L23.0763 21.6751L16.0596 20.8847L16.3074 19.4755L23.5646 20.1815C23.8096 19.6523 23.935 19.214 24.18 18.7724C24.6788 17.1171 25.601 15.5608 26.8893 14.2003C27.545 13.4792 28.4181 12.9004 29.4286 12.5163C30.4392 12.1323 31.5549 11.9558 32.6737 12.0024C33.2149 11.9845 33.7552 12.0525 34.2624 12.2034C34.7696 12.3543 35.2335 12.5849 35.6265 12.8808C35.749 12.9708 35.9969 13.1433 35.9969 13.3185C36.0307 13.5054 36.0153 13.696 35.9515 13.878C35.8877 14.06 35.7771 14.2292 35.6265 14.3755C35.3752 14.4972 35.0787 14.5465 34.7871 14.5144C34.4955 14.4822 34.2269 14.3706 34.0269 14.1991C33.6565 13.9339 33.4101 13.6727 33.0427 13.4087C32.891 13.2428 32.6961 13.1049 32.4711 13.0044C32.2461 12.9039 31.9964 12.843 31.7391 12.8263C31.4818 12.8095 31.223 12.8371 30.9804 12.9071C30.7378 12.9772 30.517 13.0883 30.3333 13.2323C29.6738 13.7054 29.1318 14.2725 28.7352 14.904C27.8735 16.752 27.2581 18.6836 26.3963 20.6192L33.1652 21.3224L32.6723 22.6425L26.1485 21.9382L25.4121 24.7524L32.4259 25.4556L31.9329 26.7751L25.0417 26.0731C24.6609 27.2334 24.2067 28.3781 23.6809 29.5021C23.0671 30.7333 22.4518 31.9609 21.7155 33.1021C21.2294 33.8629 20.5152 34.5171 19.6358 35.0075C18.7563 35.498 17.7384 35.8094 16.6717 35.9146C16.272 35.9674 15.8676 35.9941 15.4623 35.9948C14.4975 36.0199 13.5461 35.8097 12.7364 35.3925Z" fill="white"/>
</g>
<defs>
<clipPath id="clip0_2461_43743">
<rect width="24" height="24" fill="white" transform="translate(12 12)"/>
</clipPath>
</defs>
</svg>
