<svg width="21" height="20" viewBox="0 0 21 20" fill="none" xmlns="http://www.w3.org/2000/svg">
<rect x="0.5" width="20" height="20" rx="10" fill="white"/>
<mask id="mask0_2039_7347" style="mask-type:alpha" maskUnits="userSpaceOnUse" x="5" y="4" width="11" height="11">
<path d="M5.80683 14.7469C5.72879 14.7128 5.66092 14.6656 5.60797 14.6088C5.55501 14.5519 5.51819 14.4868 5.5 14.4176C5.50024 14.3393 5.52351 14.262 5.5679 14.192C5.6123 14.1221 5.67661 14.0613 5.75577 14.0145C5.92801 13.9914 6.10484 14.0038 6.26915 14.0509C6.43167 14.1673 6.57007 14.3034 6.67925 14.454C6.74223 14.522 6.82214 14.5793 6.91395 14.6219C7.00576 14.6646 7.10756 14.692 7.21317 14.7023C7.31878 14.7126 7.42597 14.7055 7.52807 14.6818C7.63017 14.658 7.72504 14.618 7.80691 14.5641C8.23283 14.277 8.5374 13.8929 8.67941 13.464C8.9862 12.5855 9.29492 11.7424 9.55068 10.8639V10.7174L6.83236 10.424L6.93571 9.8739L9.756 10.1669L10.1151 9.03137L7.19148 8.70203L7.29476 8.11487L10.3186 8.40906C10.4207 8.18856 10.4729 8.0059 10.575 7.8219C10.7828 7.13221 11.1671 6.48376 11.7039 5.91687C11.9771 5.61643 12.3409 5.37523 12.7619 5.21521C13.183 5.05519 13.6479 4.98167 14.1141 5.0011C14.3396 4.9936 14.5647 5.02197 14.776 5.08484C14.9873 5.14771 15.1806 5.24377 15.3444 5.36707C15.3954 5.40457 15.4987 5.47644 15.4987 5.54944C15.5128 5.62734 15.5064 5.70677 15.4798 5.78259C15.4532 5.85842 15.4071 5.92892 15.3444 5.98987C15.2397 6.0406 15.1161 6.06113 14.9946 6.04773C14.8731 6.03433 14.7612 5.98784 14.6779 5.91638C14.5235 5.80588 14.4209 5.69704 14.2678 5.58704C14.2046 5.51793 14.1234 5.46044 14.0296 5.41858C13.9359 5.37672 13.8318 5.35134 13.7246 5.34436C13.6174 5.33738 13.5096 5.34887 13.4085 5.37805C13.3074 5.40723 13.2154 5.45354 13.1389 5.51355C12.8641 5.71068 12.6382 5.94695 12.473 6.21008C12.1139 6.98008 11.8575 7.78493 11.4985 8.59143L14.3188 8.8844L14.1134 9.43445L11.3952 9.14099L11.0884 10.3136L14.0108 10.6066L13.8054 11.1564L10.934 10.8639C10.7754 11.3473 10.5861 11.8243 10.367 12.2926C10.1113 12.8056 9.85494 13.3171 9.54815 13.7926C9.34559 14.1096 9.04801 14.3822 8.68156 14.5865C8.31512 14.7909 7.891 14.9207 7.44656 14.9645C7.27999 14.9865 7.11149 14.9976 6.94264 14.9979C6.54061 15.0084 6.14422 14.9208 5.80683 14.7469Z" fill="#F9FAFB"/>
</mask>
<g mask="url(#mask0_2039_7347)">
<rect x="3.83333" y="2.5" width="13.3333" height="15" fill="#2699FB"/>
</g>
</svg>
