<svg width="36" height="36" viewBox="0 0 36 36" fill="none" xmlns="http://www.w3.org/2000/svg">
<g style="mix-blend-mode:multiply">
<rect x="2" y="2" width="32" height="32" rx="16" fill="#BCE0FD"/>
<rect x="2" y="2" width="32" height="32" rx="16" stroke="#F1F9FF" stroke-width="4"/>
<path d="M11.6667 17.9993H24.3333M14 20.666H16.6667M15.9777 12.666H20.0223C20.7402 12.666 21.0992 12.666 21.4161 12.7753C21.6963 12.872 21.9516 13.0297 22.1634 13.2372C22.4029 13.4717 22.5634 13.7928 22.8845 14.4349L24.3288 17.3237C24.4548 17.5757 24.5178 17.7017 24.5622 17.8337C24.6017 17.951 24.6302 18.0717 24.6473 18.1942C24.6667 18.3322 24.6667 18.473 24.6667 18.7548V20.1327C24.6667 21.2528 24.6667 21.8128 24.4487 22.2407C24.2569 22.617 23.951 22.9229 23.5746 23.1147C23.1468 23.3327 22.5868 23.3327 21.4667 23.3327H14.5333C13.4132 23.3327 12.8532 23.3327 12.4253 23.1147C12.049 22.9229 11.7431 22.617 11.5513 22.2407C11.3333 21.8128 11.3333 21.2528 11.3333 20.1327V18.7548C11.3333 18.473 11.3333 18.3322 11.3526 18.1942C11.3698 18.0717 11.3983 17.951 11.4377 17.8337C11.4822 17.7017 11.5452 17.5757 11.6712 17.3237L13.1155 14.4349C13.4366 13.7928 13.5971 13.4717 13.8366 13.2372C14.0484 13.0297 14.3037 12.872 14.5839 12.7753C14.9008 12.666 15.2598 12.666 15.9777 12.666Z" stroke="#2699FB" stroke-width="1.33333" stroke-linecap="round" stroke-linejoin="round"/>
</g>
</svg>
