<svg width="20" height="20" viewBox="0 0 20 20" fill="none" xmlns="http://www.w3.org/2000/svg">
<circle cx="10" cy="10" r="9.58333" fill="#FCFCFD" stroke="#EAECF0" stroke-width="0.833333"/>
<path fill-rule="evenodd" clip-rule="evenodd" d="M6.66667 7.77743C6.66667 5.93648 8.15905 4.44409 10 4.44409C11.8409 4.44409 13.3333 5.93648 13.3333 7.77743V8.41649C13.4903 8.4509 13.641 8.501 13.7866 8.57519C14.2048 8.78824 14.5447 9.1282 14.7578 9.54634C14.8952 9.81597 14.9499 10.103 14.9754 10.4153C15 10.716 15 11.085 15 11.5322V12.3559C15 12.8031 15 13.1722 14.9754 13.4729C14.9499 13.7852 14.8952 14.0722 14.7578 14.3418C14.5447 14.76 14.2048 15.0999 13.7866 15.313C13.517 15.4504 13.23 15.5051 12.9177 15.5307C12.617 15.5552 12.2479 15.5552 11.8007 15.5552H8.19929C7.75208 15.5552 7.38299 15.5552 7.08232 15.5307C6.77004 15.5051 6.48299 15.4504 6.21336 15.313C5.79522 15.0999 5.45526 14.76 5.24221 14.3418C5.10482 14.0722 5.05007 13.7852 5.02455 13.4729C4.99999 13.1722 4.99999 12.8031 5 12.3559V11.5323C4.99999 11.0851 4.99999 10.716 5.02455 10.4153C5.05007 10.103 5.10482 9.81597 5.24221 9.54634C5.45526 9.1282 5.79522 8.78824 6.21336 8.57519C6.35897 8.501 6.50966 8.4509 6.66667 8.41649V7.77743ZM12.2222 7.77743V8.33388H7.77778V7.77743C7.77778 6.55013 8.7727 5.5552 10 5.5552C11.2273 5.5552 12.2222 6.55013 12.2222 7.77743ZM10.5556 11.3885C10.5556 11.0817 10.3068 10.833 10 10.833C9.69318 10.833 9.44444 11.0817 9.44444 11.3885V12.4996C9.44444 12.8065 9.69318 13.0552 10 13.0552C10.3068 13.0552 10.5556 12.8065 10.5556 12.4996V11.3885Z" fill="#98A2B3"/>
</svg>
