<svg width="14" height="14" viewBox="0 0 14 14" fill="none" xmlns="http://www.w3.org/2000/svg">
<path fill-rule="evenodd" clip-rule="evenodd" d="M3.66667 4.77743C3.66667 2.93648 5.15905 1.44409 7 1.44409C8.84095 1.44409 10.3333 2.93648 10.3333 4.77743V5.41649C10.4903 5.4509 10.641 5.501 10.7866 5.57519C11.2048 5.78824 11.5447 6.1282 11.7578 6.54634C11.8952 6.81597 11.9499 7.10302 11.9754 7.4153C12 7.71596 12 8.08505 12 8.53225V9.35594C12 9.80314 12 10.1722 11.9754 10.4729C11.9499 10.7852 11.8952 11.0722 11.7578 11.3419C11.5447 11.76 11.2048 12.0999 10.7866 12.313C10.517 12.4504 10.23 12.5051 9.91768 12.5307C9.61702 12.5552 9.24792 12.5552 8.80071 12.5552H5.19929C4.75208 12.5552 4.38299 12.5552 4.08232 12.5307C3.77004 12.5051 3.48299 12.4504 3.21336 12.313C2.79522 12.0999 2.45526 11.76 2.24221 11.3419C2.10482 11.0722 2.05007 10.7852 2.02455 10.4729C1.99999 10.1722 1.99999 9.80313 2 9.35594V8.53225C1.99999 8.08505 1.99999 7.71596 2.02455 7.4153C2.05007 7.10302 2.10482 6.81597 2.24221 6.54634C2.45526 6.1282 2.79522 5.78824 3.21336 5.57519C3.35897 5.501 3.50966 5.4509 3.66667 5.41649V4.77743ZM9.22222 4.77743V5.33388H4.77778V4.77743C4.77778 3.55013 5.7727 2.5552 7 2.5552C8.2273 2.5552 9.22222 3.55013 9.22222 4.77743ZM7.55556 8.38854C7.55556 8.08171 7.30683 7.83298 7 7.83298C6.69318 7.83298 6.44444 8.08171 6.44444 8.38854V9.49965C6.44444 9.80647 6.69318 10.0552 7 10.0552C7.30682 10.0552 7.55556 9.80647 7.55556 9.49965V8.38854Z" fill="#98A2B3"/>
</svg>
