<svg width="15" height="14" viewBox="0 0 15 14" fill="none" xmlns="http://www.w3.org/2000/svg">
<path d="M8.24996 9.17725C8.59868 8.97553 8.83329 8.5985 8.83329 8.16667C8.83329 7.52233 8.31096 7 7.66662 7C7.02229 7 6.49996 7.52233 6.49996 8.16667C6.49996 8.5985 6.73457 8.97553 7.08329 9.17725V9.91667C7.08329 10.2388 7.34446 10.5 7.66662 10.5C7.98879 10.5 8.24996 10.2388 8.24996 9.91667V9.17725Z" fill="#6F767E"/>
<path d="M4.74996 4.66663V4.08329C4.74996 2.47246 6.05579 1.16663 7.66663 1.16663C9.27746 1.16663 10.5833 2.47246 10.5833 4.08329V4.66663C11.5498 4.66663 12.3333 5.45013 12.3333 6.41663V11.0833C12.3333 12.0498 11.5498 12.8333 10.5833 12.8333H4.74996C3.78346 12.8333 2.99996 12.0498 2.99996 11.0833V6.41663C2.99996 5.45013 3.78346 4.66663 4.74996 4.66663ZM5.91663 4.08329V4.66663H9.41663V4.08329C9.41663 3.11679 8.63312 2.33329 7.66663 2.33329C6.70013 2.33329 5.91663 3.11679 5.91663 4.08329ZM4.16662 6.41663V11.0833C4.16662 11.4055 4.42779 11.6666 4.74996 11.6666H10.5833C10.9055 11.6666 11.1666 11.4055 11.1666 11.0833V6.41663C11.1666 6.09446 10.9055 5.83329 10.5833 5.83329H4.74996C4.42779 5.83329 4.16662 6.09446 4.16662 6.41663Z" fill="#6F767E"/>
</svg>
