<svg width="40" height="41" viewBox="0 0 40 41" fill="none" xmlns="http://www.w3.org/2000/svg">
<rect y="0.5" width="40" height="40" rx="20" fill="#1D2939"/>
<g clip-path="url(#clip0_1726_18914)">
<path d="M28.75 16.2143H11.25C10.9185 16.2143 10.6005 16.0638 10.3661 15.7959C10.1317 15.528 10 15.1646 10 14.7857V11.9286C10 11.5497 10.1317 11.1863 10.3661 10.9184C10.6005 10.6505 10.9185 10.5 11.25 10.5H28.75C29.0815 10.5 29.3995 10.6505 29.6339 10.9184C29.8683 11.1863 30 11.5497 30 11.9286V14.7857C30 15.1646 29.8683 15.528 29.6339 15.7959C29.3995 16.0638 29.0815 16.2143 28.75 16.2143ZM26.875 12.2863C26.6897 12.2865 26.5087 12.3495 26.3547 12.4673C26.2007 12.5851 26.0808 12.7524 26.01 12.9481C25.9393 13.1438 25.9209 13.3591 25.9571 13.5668C25.9934 13.7744 26.0827 13.9651 26.2138 14.1148C26.3449 14.2644 26.5118 14.3663 26.6936 14.4075C26.8753 14.4487 27.0636 14.4275 27.2348 14.3464C27.406 14.2653 27.5522 14.128 27.6552 13.952C27.7581 13.7759 27.813 13.5689 27.813 13.3571C27.813 13.2164 27.7887 13.0771 27.7416 12.9471C27.6944 12.8171 27.6253 12.699 27.5382 12.5995C27.4511 12.5001 27.3477 12.4212 27.2339 12.3675C27.1201 12.3137 26.9981 12.2861 26.875 12.2863ZM24.375 12.2863C24.1897 12.2865 24.0087 12.3495 23.8547 12.4673C23.7007 12.5851 23.5808 12.7524 23.51 12.9481C23.4393 13.1438 23.4209 13.3591 23.4571 13.5668C23.4934 13.7744 23.5827 13.9651 23.7138 14.1148C23.8449 14.2644 24.0118 14.3663 24.1936 14.4075C24.3753 14.4487 24.5636 14.4275 24.7348 14.3464C24.906 14.2653 25.0522 14.128 25.1552 13.952C25.2581 13.7759 25.313 13.5689 25.313 13.3571C25.313 13.2164 25.2887 13.0771 25.2416 12.9471C25.1944 12.8171 25.1253 12.699 25.0382 12.5995C24.9511 12.5001 24.8477 12.4212 24.7339 12.3675C24.6201 12.3137 24.4981 12.2861 24.375 12.2863ZM28.75 23.3571H11.25C10.9185 23.3571 10.6005 23.2066 10.3661 22.9387C10.1317 22.6708 10 22.3075 10 21.9286V19.0714C10 18.6925 10.1317 18.3292 10.3661 18.0613C10.6005 17.7934 10.9185 17.6429 11.25 17.6429H28.75C29.0815 17.6429 29.3995 17.7934 29.6339 18.0613C29.8683 18.3292 30 18.6925 30 19.0714V21.9286C30 22.3075 29.8683 22.6708 29.6339 22.9387C29.3995 23.2066 29.0815 23.3571 28.75 23.3571ZM26.875 19.428C26.6895 19.428 26.5081 19.4909 26.3539 19.6087C26.1996 19.7265 26.0794 19.8939 26.0084 20.0898C25.9374 20.2856 25.9188 20.5012 25.955 20.7091C25.9912 20.9171 26.0806 21.1081 26.2117 21.258C26.3429 21.4079 26.5101 21.51 26.692 21.5514C26.874 21.5928 27.0626 21.5715 27.234 21.4904C27.4054 21.4093 27.5518 21.2719 27.6549 21.0956C27.758 20.9193 27.813 20.712 27.813 20.5C27.813 20.3593 27.7887 20.2199 27.7416 20.0899C27.6944 19.9599 27.6253 19.8418 27.5382 19.7424C27.4511 19.6429 27.3477 19.5641 27.2339 19.5103C27.1201 19.4566 26.9981 19.429 26.875 19.4291V19.428ZM24.375 19.428C24.1895 19.428 24.0081 19.4909 23.8539 19.6087C23.6996 19.7265 23.5794 19.8939 23.5084 20.0898C23.4374 20.2856 23.4188 20.5012 23.455 20.7091C23.4912 20.9171 23.5806 21.1081 23.7117 21.258C23.8429 21.4079 24.0101 21.51 24.192 21.5514C24.374 21.5928 24.5626 21.5715 24.734 21.4904C24.9054 21.4093 25.0519 21.2719 25.1549 21.0956C25.258 20.9193 25.313 20.712 25.313 20.5C25.313 20.3593 25.2887 20.2199 25.2416 20.0899C25.1944 19.9599 25.1253 19.8418 25.0382 19.7424C24.9511 19.6429 24.8477 19.5641 24.7339 19.5103C24.6201 19.4566 24.4981 19.429 24.375 19.4291V19.428ZM28.75 30.5H11.25C10.9185 30.5 10.6005 30.3495 10.3661 30.0816C10.1317 29.8137 10 29.4503 10 29.0714V26.2143C10 25.8354 10.1317 25.472 10.3661 25.2041C10.6005 24.9362 10.9185 24.7857 11.25 24.7857H28.75C29.0815 24.7857 29.3995 24.9362 29.6339 25.2041C29.8683 25.472 30 25.8354 30 26.2143V29.0714C30 29.4503 29.8683 29.8137 29.6339 30.0816C29.3995 30.3495 29.0815 30.5 28.75 30.5ZM26.875 26.572C26.6895 26.572 26.5081 26.6349 26.3539 26.7527C26.1996 26.8705 26.0794 27.0379 26.0084 27.2338C25.9374 27.4296 25.9188 27.6452 25.955 27.8531C25.9912 28.0611 26.0806 28.2521 26.2117 28.402C26.3429 28.5519 26.5101 28.654 26.692 28.6954C26.874 28.7368 27.0626 28.7155 27.234 28.6344C27.4054 28.5533 27.5518 28.4159 27.6549 28.2396C27.758 28.0633 27.813 27.856 27.813 27.644C27.8131 27.5032 27.789 27.3637 27.7419 27.2336C27.6948 27.1035 27.6257 26.9852 27.5386 26.8856C27.4514 26.7861 27.348 26.7071 27.2341 26.6533C27.1202 26.5995 26.9982 26.5718 26.875 26.572ZM24.375 26.572C24.1895 26.572 24.0081 26.6349 23.8539 26.7527C23.6996 26.8705 23.5794 27.0379 23.5084 27.2338C23.4374 27.4296 23.4188 27.6452 23.455 27.8531C23.4912 28.0611 23.5806 28.2521 23.7117 28.402C23.8429 28.5519 24.0101 28.654 24.192 28.6954C24.374 28.7368 24.5626 28.7155 24.734 28.6344C24.9054 28.5533 25.0519 28.4159 25.1549 28.2396C25.258 28.0633 25.313 27.856 25.313 27.644C25.3131 27.5032 25.289 27.3637 25.2419 27.2336C25.1948 27.1035 25.1257 26.9852 25.0386 26.8856C24.9514 26.7861 24.848 26.7071 24.7341 26.6533C24.6202 26.5995 24.4982 26.5718 24.375 26.572Z" fill="#FCFCFD"/>
</g>
<defs>
<clipPath id="clip0_1726_18914">
<rect width="20" height="20" fill="white" transform="translate(10 10.5)"/>
</clipPath>
</defs>
</svg>
