<svg width="36" height="36" viewBox="0 0 36 36" fill="none" xmlns="http://www.w3.org/2000/svg">
<g style="mix-blend-mode:multiply">
<rect x="2" y="2" width="32" height="32" rx="16" fill="#BCE0FD"/>
<path fill-rule="evenodd" clip-rule="evenodd" d="M17.8095 10.7258C17.936 10.7075 18.0644 10.7075 18.1909 10.7258C18.3366 10.7468 18.4722 10.7981 18.5799 10.8388L18.6088 10.8496L22.2704 12.2227C22.6823 12.3764 23.044 12.5115 23.3225 12.7569C23.5662 12.9717 23.7539 13.2426 23.8694 13.5461C24.0015 13.8931 24.0009 14.2792 24.0003 14.7188L24.0002 18.0001C24.0002 19.8845 22.9753 21.4556 21.8675 22.6097C20.7522 23.7716 19.4762 24.5922 18.8014 24.9858L18.7741 25.0018C18.651 25.0742 18.4912 25.168 18.2798 25.2133C18.1068 25.2504 17.8936 25.2504 17.7206 25.2133C17.5092 25.168 17.3494 25.0742 17.2262 25.0019L17.1989 24.9858C16.5242 24.5922 15.2481 23.7716 14.1329 22.6097C13.025 21.4556 12.0002 19.8845 12.0002 18.0001L12.0001 14.7188C11.9995 14.2792 11.9989 13.8931 12.1309 13.5461C12.2465 13.2426 12.4342 12.9717 12.6778 12.7569C12.9564 12.5115 13.3181 12.3764 13.7299 12.2227L17.3916 10.8496L17.4204 10.8388C17.5281 10.7981 17.6637 10.7468 17.8095 10.7258ZM18.6668 14C18.6668 13.6318 18.3684 13.3333 18.0002 13.3333C17.632 13.3333 17.3335 13.6318 17.3335 14V14.3333C16.2289 14.3333 15.3335 15.2288 15.3335 16.3333C15.3335 17.4379 16.2289 18.3333 17.3335 18.3333H18.6668C19.035 18.3333 19.3335 18.6318 19.3335 19C19.3335 19.3682 19.035 19.6667 18.6668 19.6667H17.2446C17.0233 19.6667 16.8299 19.5424 16.7324 19.3567C16.5612 19.0307 16.1581 18.9053 15.8322 19.0764C15.5062 19.2476 15.3807 19.6507 15.5519 19.9766C15.8707 20.5836 16.5085 21 17.2446 21H17.3335V21.3333C17.3335 21.7015 17.632 22 18.0002 22C18.3684 22 18.6668 21.7015 18.6668 21.3333V21C19.7714 21 20.6668 20.1046 20.6668 19C20.6668 17.8954 19.7714 17 18.6668 17H17.3335C16.9653 17 16.6668 16.7015 16.6668 16.3333C16.6668 15.9651 16.9653 15.6667 17.3335 15.6667H18.7557C18.9771 15.6667 19.1704 15.7909 19.268 15.9766C19.4391 16.3026 19.8422 16.4281 20.1682 16.2569C20.4941 16.0857 20.6196 15.6827 20.4484 15.3567C20.1297 14.7497 19.4919 14.3333 18.7557 14.3333H18.6668V14Z" fill="#2699FB"/>
<rect x="2" y="2" width="32" height="32" rx="16" stroke="#F1F9FF" stroke-width="4"/>
</g>
</svg>
