<svg width="56" height="56" viewBox="0 0 56 56" fill="none" xmlns="http://www.w3.org/2000/svg">
<rect x="4" y="4" width="48" height="48" rx="24" fill="#D1FADF"/>
<path d="M24 24H24.01M18 21.2L18 25.6745C18 26.1637 18 26.4083 18.0553 26.6385C18.1043 26.8425 18.1851 27.0376 18.2947 27.2166C18.4184 27.4184 18.5914 27.5914 18.9373 27.9373L26.6059 35.6059C27.7939 36.7939 28.388 37.388 29.0729 37.6105C29.6755 37.8063 30.3245 37.8063 30.927 37.6105C31.612 37.388 32.2061 36.7939 33.3941 35.6059L35.6059 33.3941C36.7939 32.2061 37.388 31.612 37.6105 30.927C37.8063 30.3245 37.8063 29.6755 37.6105 29.0729C37.388 28.388 36.7939 27.7939 35.6059 26.6059L27.9373 18.9373C27.5914 18.5914 27.4184 18.4184 27.2166 18.2947C27.0376 18.1851 26.8425 18.1043 26.6385 18.0553C26.4083 18 26.1637 18 25.6745 18L21.2 18C20.0799 18 19.5198 18 19.092 18.218C18.7157 18.4097 18.4097 18.7157 18.218 19.092C18 19.5198 18 20.0799 18 21.2ZM24.5 24C24.5 24.2761 24.2761 24.5 24 24.5C23.7239 24.5 23.5 24.2761 23.5 24C23.5 23.7239 23.7239 23.5 24 23.5C24.2761 23.5 24.5 23.7239 24.5 24Z" stroke="#039855" stroke-width="2" stroke-linecap="round" stroke-linejoin="round"/>
<rect x="4" y="4" width="48" height="48" rx="24" stroke="#ECFDF3" stroke-width="8"/>
</svg>
