<svg width="66" height="66" viewBox="0 0 66 66" fill="none" xmlns="http://www.w3.org/2000/svg">
<rect x="5" y="5" width="56" height="56" rx="28" fill="#BCE0FD"/>
<rect x="5" y="5" width="56" height="56" rx="28" stroke="#F1F9FF" stroke-width="10"/>
<path d="M44.6673 30.6667H21.334M31.834 41.1667L40.934 41.1667C42.2408 41.1667 42.8942 41.1667 43.3933 40.9123C43.8323 40.6886 44.1893 40.3317 44.413 39.8926C44.6673 39.3935 44.6673 38.7401 44.6673 37.4333V28.5667C44.6673 27.2599 44.6673 26.6065 44.413 26.1074C44.1893 25.6683 43.8323 25.3114 43.3933 25.0877C42.8942 24.8333 42.2408 24.8333 40.934 24.8333H38.834M31.834 41.1667L34.1673 43.5M31.834 41.1667L34.1673 38.8333M27.1673 41.1667H25.0673C23.7605 41.1667 23.1071 41.1667 22.608 40.9123C22.169 40.6886 21.812 40.3317 21.5883 39.8926C21.334 39.3935 21.334 38.7401 21.334 37.4333V28.5667C21.334 27.2599 21.334 26.6065 21.5883 26.1074C21.812 25.6683 22.169 25.3114 22.608 25.0877C23.1071 24.8333 23.7605 24.8333 25.0673 24.8333H34.1673M34.1673 24.8333L31.834 27.1667M34.1673 24.8333L31.834 22.5" stroke="#1875ED" stroke-width="2" stroke-linecap="round" stroke-linejoin="round"/>
</svg>
