<svg width="48" height="48" viewBox="0 0 48 48" fill="none" xmlns="http://www.w3.org/2000/svg">
<g clip-path="url(#clip0_248_4820)">
<path fill-rule="evenodd" clip-rule="evenodd" d="M0 24C0 10.7452 10.7452 0 24 0C37.2548 0 48 10.7452 48 24C48 37.2548 37.2548 48 24 48C10.7452 48 0 37.2548 0 24Z" fill="#7289DA"/>
<path fill-rule="evenodd" clip-rule="evenodd" d="M28.3561 30.2635C28.9726 31.0778 29.7124 31.9992 29.7124 31.9992C34.2534 31.8492 36 28.7422 36 28.7422C36 21.8422 33.041 16.2493 33.041 16.2493C30.0822 13.9351 27.2671 13.9994 27.2671 13.9994L26.9795 14.3423C30.4726 15.4565 32.0959 17.0636 32.0959 17.0636C29.959 15.8423 27.863 15.2423 25.911 15.0065C24.4315 14.8351 23.0137 14.878 21.7603 15.0494C21.6527 15.0494 21.5606 15.0658 21.4571 15.0841C21.442 15.0868 21.4266 15.0895 21.411 15.0923C20.6918 15.1565 18.9452 15.4351 16.7466 16.4423C15.9863 16.8065 15.5342 17.0636 15.5342 17.0636C15.5342 17.0636 17.2397 15.3708 20.9383 14.2565L20.7329 13.9994C20.7329 13.9994 17.9178 13.9351 14.959 16.2493C14.959 16.2493 12 21.8422 12 28.7422C12 28.7422 13.7261 31.8492 18.2671 31.9992C18.2671 31.9992 19.0274 31.035 19.6439 30.2207C17.0342 29.4064 16.048 27.6922 16.048 27.6922C16.048 27.6922 16.2534 27.8422 16.6232 28.0564C16.6439 28.0778 16.6644 28.0992 16.7054 28.1207C16.7363 28.1422 16.7671 28.1582 16.798 28.1742C16.8288 28.1903 16.8596 28.2064 16.8904 28.2278C17.4041 28.5278 17.9178 28.7635 18.3904 28.9564C19.2329 29.2992 20.2397 29.642 21.411 29.8778C22.952 30.1778 24.7603 30.285 26.7329 29.8992C27.6986 29.7278 28.6849 29.4278 29.7124 28.9778C30.4315 28.6992 31.2329 28.2922 32.0754 27.7135C32.0754 27.7135 31.048 29.4707 28.3561 30.2635ZM20.7362 22.3811C19.5743 22.3811 18.6569 23.4841 18.6569 24.83C18.6569 26.1758 19.5947 27.279 20.7362 27.279C21.8983 27.279 22.8156 26.1758 22.8156 24.83C22.836 23.4841 21.8983 22.3811 20.7362 22.3811ZM28.1772 22.3811C27.0151 22.3811 26.0978 23.4841 26.0978 24.83C26.0978 26.1758 27.0355 27.279 28.1772 27.279C29.3392 27.279 30.2566 26.1758 30.2566 24.83C30.2566 23.4841 29.3392 22.3811 28.1772 22.3811Z" fill="white"/>
</g>
<defs>
<clipPath id="clip0_248_4820">
<rect width="48" height="48" fill="white"/>
</clipPath>
</defs>
</svg>
