<svg width="48" height="48" viewBox="0 0 48 48" fill="none" xmlns="http://www.w3.org/2000/svg">
<g clip-path="url(#clip0_248_4802)">
<path fill-rule="evenodd" clip-rule="evenodd" d="M0 24C0 10.7452 10.7452 0 24 0C37.2548 0 48 10.7452 48 24C48 37.2548 37.2548 48 24 48C10.7452 48 0 37.2548 0 24Z" fill="#55ACEE"/>
<path fill-rule="evenodd" clip-rule="evenodd" d="M23.2812 19.5052L23.3316 20.3356L22.4922 20.2339C19.4369 19.8442 16.7676 18.5221 14.5013 16.302L13.3933 15.2004L13.108 16.0139C12.5036 17.8273 12.8897 19.7424 14.1488 21.0305C14.8204 21.7423 14.6692 21.844 13.5109 21.4202C13.108 21.2848 12.7554 21.183 12.7219 21.2339C12.6043 21.3524 13.0073 22.8948 13.3262 23.5049C13.7627 24.3523 14.6525 25.1827 15.6262 25.6742L16.4486 26.064L15.475 26.081C14.5349 26.081 14.5013 26.098 14.6021 26.4539C14.9378 27.5555 16.2641 28.7249 17.7413 29.2333L18.7822 29.5892L17.8757 30.1315C16.5326 30.9112 14.9546 31.3518 13.3765 31.3858C12.6211 31.4027 12 31.4705 12 31.5214C12 31.6908 14.048 32.6399 15.24 33.0127C18.8158 34.1143 23.0629 33.6398 26.2526 31.7586C28.519 30.4196 30.7852 27.7589 31.8428 25.1827C32.4136 23.8099 32.9844 21.3017 32.9844 20.0983C32.9844 19.3187 33.0348 19.217 33.9749 18.2849C34.5288 17.7426 35.0492 17.1493 35.1499 16.9799C35.3178 16.6579 35.301 16.6579 34.4449 16.946C33.018 17.4545 32.8165 17.3867 33.5215 16.624C34.042 16.0817 34.6631 15.0986 34.6631 14.8105C34.6631 14.7598 34.4113 14.8445 34.126 14.997C33.8238 15.1664 33.1523 15.4207 32.6486 15.5732L31.7422 15.8614L30.9196 15.302C30.4662 14.997 29.8283 14.658 29.4925 14.5564C28.6364 14.319 27.327 14.353 26.5548 14.6242C24.4564 15.3868 23.1301 17.3527 23.2812 19.5052Z" fill="white"/>
</g>
<defs>
<clipPath id="clip0_248_4802">
<rect width="48" height="48" fill="white"/>
</clipPath>
</defs>
</svg>
