<svg width="202" height="92" viewBox="0 0 202 92" fill="none" xmlns="http://www.w3.org/2000/svg">
<rect width="9.85272" height="9.85272" transform="matrix(0.866025 -0.5 0 1 30.4822 40.9028)" fill="#2E90FA"/>
<rect width="9.85272" height="9.85272" transform="matrix(0.866025 -0.5 0 1 40.6013 35.3107)" fill="#2E90FA"/>
<rect width="9.85272" height="9.85272" transform="matrix(0.866025 -0.5 0 1 40.6013 46.6281)" fill="#F04438"/>
<rect width="9.85272" height="9.85272" transform="matrix(0.866025 -0.5 0 1 50.7197 29.186)" fill="#2E90FA"/>
<rect width="9.85272" height="9.85272" transform="matrix(-0.866025 -0.5 0.866025 -0.5 29.6946 39.7045)" fill="#2E90FA"/>
<rect width="9.85272" height="9.85272" transform="matrix(-0.866025 -0.5 0.866025 -0.5 19.5754 33.8461)" fill="#2E90FA"/>
<rect width="9.85272" height="9.85272" transform="matrix(-0.866025 -0.5 0.866025 -0.5 9.45654 27.9878)" fill="#2E90FA"/>
<rect width="9.85272" height="9.85272" transform="matrix(-0.866025 -0.5 0.866025 -0.5 39.8137 33.8461)" fill="#2E90FA"/>
<rect width="9.85272" height="9.85272" transform="matrix(-0.866025 -0.5 0.866025 -0.5 49.9326 27.9878)" fill="#2E90FA"/>
<rect width="9.85272" height="9.85272" transform="matrix(-0.866025 -0.5 0 1 28.8958 40.9028)" fill="#2E90FA"/>
<rect width="9.85272" height="9.85272" transform="matrix(-0.866025 -0.5 0 1 18.7766 35.0445)" fill="#2E90FA"/>
<rect width="9.85272" height="9.85272" transform="matrix(-0.866025 -0.5 0 1 18.7766 46.4949)" fill="#2E90FA"/>
<rect width="9.85272" height="9.85272" transform="matrix(-0.866025 -0.5 0 1 8.65771 29.186)" fill="#2E90FA"/>
<rect width="9.85272" height="9.85272" transform="matrix(0.866025 -0.5 0 1 30.4822 52.3533)" fill="#2E90FA"/>
<rect width="9.85272" height="9.85272" transform="matrix(-0.866025 -0.5 0 1 28.8958 52.3533)" fill="#2E90FA"/>
<rect width="9.85272" height="9.85272" transform="matrix(0.866025 -0.5 0 1 30.4822 63.8038)" fill="#2E90FA"/>
<rect width="9.85272" height="9.85272" transform="matrix(-0.866025 -0.5 0 1 28.8958 63.8038)" fill="#2E90FA"/>
<path d="M93.3171 67H84.1991V23.3073H109.228V30.8954H93.3171V42.1551H108.126V49.7432H93.3171V67ZM126.168 33.5879V67H117.05V33.5879H126.168ZM121.64 20.4923C122.986 20.4923 124.149 20.8187 125.128 21.4714C126.107 22.0834 126.596 23.2461 126.596 24.9595C126.596 26.6321 126.107 27.7948 125.128 28.4476C124.149 29.1003 122.986 29.4267 121.64 29.4267C120.252 29.4267 119.069 29.1003 118.09 28.4476C117.152 27.7948 116.683 26.6321 116.683 24.9595C116.683 23.2461 117.152 22.0834 118.09 21.4714C119.069 20.8187 120.252 20.4923 121.64 20.4923ZM144.813 67H135.695V20.4923H144.813V67Z" fill="#2E90FA"/>
<path d="M164.193 67H155.075V23.3073H180.103V30.8954H164.193V42.1551H179.002V49.7432H164.193V67ZM197.043 33.5879V67H187.925V33.5879H197.043ZM192.515 20.4923C193.861 20.4923 195.024 20.8187 196.003 21.4714C196.982 22.0834 197.472 23.2461 197.472 24.9595C197.472 26.6321 196.982 27.7948 196.003 28.4476C195.024 29.1003 193.861 29.4267 192.515 29.4267C191.128 29.4267 189.945 29.1003 188.966 28.4476C188.027 27.7948 187.558 26.6321 187.558 24.9595C187.558 23.2461 188.027 22.0834 188.966 21.4714C189.945 20.8187 191.128 20.4923 192.515 20.4923Z" fill="#F04438"/>
</svg>
