<svg width="106" height="48" viewBox="0 0 106 48" fill="none" xmlns="http://www.w3.org/2000/svg">
<rect width="5.15223" height="5.15223" transform="matrix(0.866025 -0.5 0 1 15.8745 17.5549)" fill="#2E90FA"/>
<rect width="5.15223" height="5.15223" transform="matrix(0.866025 -0.5 0 1 21.166 14.6306)" fill="#2E90FA"/>
<rect width="5.15223" height="5.15223" transform="matrix(0.866025 -0.5 0 1 21.166 20.5488)" fill="#F04438"/>
<rect width="5.15223" height="5.15223" transform="matrix(0.866025 -0.5 0 1 26.4573 11.428)" fill="#2E90FA"/>
<rect width="5.15223" height="5.15223" transform="matrix(-0.866025 -0.5 0.866025 -0.5 15.4626 16.9282)" fill="#2E90FA"/>
<rect width="5.15223" height="5.15223" transform="matrix(-0.866025 -0.5 0.866025 -0.5 10.1711 13.8647)" fill="#2E90FA"/>
<rect width="5.15223" height="5.15223" transform="matrix(-0.866025 -0.5 0.866025 -0.5 4.87964 10.8015)" fill="#2E90FA"/>
<rect width="5.15223" height="5.15223" transform="matrix(-0.866025 -0.5 0.866025 -0.5 20.7542 13.8647)" fill="#2E90FA"/>
<rect width="5.15223" height="5.15223" transform="matrix(-0.866025 -0.5 0.866025 -0.5 26.0457 10.8015)" fill="#2E90FA"/>
<rect width="5.15223" height="5.15223" transform="matrix(-0.866025 -0.5 0 1 15.0449 17.5549)" fill="#2E90FA"/>
<rect width="5.15223" height="5.15223" transform="matrix(-0.866025 -0.5 0 1 9.75342 14.4915)" fill="#2E90FA"/>
<rect width="5.15223" height="5.15223" transform="matrix(-0.866025 -0.5 0 1 9.75342 20.4792)" fill="#2E90FA"/>
<rect width="5.15223" height="5.15223" transform="matrix(-0.866025 -0.5 0 1 4.46191 11.428)" fill="#2E90FA"/>
<rect width="5.15223" height="5.15223" transform="matrix(0.866025 -0.5 0 1 15.8745 23.5427)" fill="#2E90FA"/>
<rect width="5.15223" height="5.15223" transform="matrix(-0.866025 -0.5 0 1 15.0449 23.5427)" fill="#2E90FA"/>
<rect width="5.15223" height="5.15223" transform="matrix(0.866025 -0.5 0 1 15.8745 29.5305)" fill="#2E90FA"/>
<rect width="5.15223" height="5.15223" transform="matrix(-0.866025 -0.5 0 1 15.0449 29.5305)" fill="#2E90FA"/>
<path d="M3.37842 39.5564H4.07466V40.2526H3.37842V39.5564Z" fill="#2E90FA"/>
<path d="M3.37842 40.6055H4.07466V41.3017H3.37842V40.6055Z" fill="#2E90FA"/>
<path d="M4.31592 40.9536C4.31592 40.7613 4.47178 40.6055 4.66404 40.6055C4.8563 40.6055 5.01216 40.7613 5.01216 40.9536C5.01216 41.1459 4.8563 41.3017 4.66404 41.3017C4.47178 41.3017 4.31592 41.1459 4.31592 40.9536Z" fill="#2E90FA"/>
<path d="M4.31592 39.5564H5.01216V40.2526H4.31592V39.5564Z" fill="#2E90FA"/>
<path d="M3.37842 41.6548H4.07466V42.351H3.37842V41.6548Z" fill="#2E90FA"/>
<path d="M9.46802 39.9045C9.46802 39.7123 9.62388 39.5564 9.81614 39.5564C10.0084 39.5564 10.1643 39.7123 10.1643 39.9045C10.1643 40.0968 10.0084 40.2526 9.81614 40.2526C9.62388 40.2526 9.46802 40.0968 9.46802 39.9045Z" fill="#2E90FA"/>
<path d="M9.46802 40.6055H10.1643V41.3017H9.46802V40.6055Z" fill="#2E90FA"/>
<path d="M9.46802 41.6548H10.1643V42.351H9.46802V41.6548Z" fill="#2E90FA"/>
<path d="M14.6204 39.5564H15.3166V40.2526H14.6204V39.5564Z" fill="#2E90FA"/>
<path d="M14.6204 40.6055H15.3166V41.3017H14.6204V40.6055Z" fill="#2E90FA"/>
<path d="M14.6204 41.6548H15.3166V42.351H14.6204V41.6548Z" fill="#2E90FA"/>
<path d="M15.6025 42.0029C15.6025 41.8106 15.7584 41.6548 15.9507 41.6548C16.1429 41.6548 16.2988 41.8106 16.2988 42.0029C16.2988 42.1952 16.1429 42.351 15.9507 42.351C15.7584 42.351 15.6025 42.1952 15.6025 42.0029Z" fill="#2E90FA"/>
<path d="M20.7546 39.5564H21.4509V40.2526H20.7546V39.5564Z" fill="#2E90FA"/>
<path d="M20.7546 40.6055H21.4509V41.3017H20.7546V40.6055Z" fill="#2E90FA"/>
<path d="M21.6921 40.9536C21.6921 40.7613 21.848 40.6055 22.0403 40.6055C22.2325 40.6055 22.3884 40.7613 22.3884 40.9536C22.3884 41.1459 22.2325 41.3017 22.0403 41.3017C21.848 41.3017 21.6921 41.1459 21.6921 40.9536Z" fill="#2E90FA"/>
<path d="M21.6921 39.5564H22.3884V40.2526H21.6921V39.5564Z" fill="#2E90FA"/>
<path d="M20.7546 41.6548H21.4509V42.351H20.7546V41.6548Z" fill="#2E90FA"/>
<path d="M26.8445 39.9045C26.8445 39.7123 27.0003 39.5564 27.1926 39.5564C27.3849 39.5564 27.5407 39.7123 27.5407 39.9045C27.5407 40.0968 27.3849 40.2526 27.1926 40.2526C27.0003 40.2526 26.8445 40.0968 26.8445 39.9045Z" fill="#2E90FA"/>
<path d="M26.8445 40.6055H27.5407V41.3017H26.8445V40.6055Z" fill="#2E90FA"/>
<path d="M26.8445 41.6548H27.5407V42.351H26.8445V41.6548Z" fill="#2E90FA"/>
<path d="M48.7325 35H43.9645V12.152H57.0525V16.12H48.7325V22.008H56.4765V25.976H48.7325V35ZM65.911 17.528V35H61.143V17.528H65.911ZM63.543 10.68C64.247 10.68 64.855 10.8507 65.367 11.192C65.879 11.512 66.135 12.12 66.135 13.016C66.135 13.8907 65.879 14.4987 65.367 14.84C64.855 15.1813 64.247 15.352 63.543 15.352C62.8176 15.352 62.199 15.1813 61.687 14.84C61.1963 14.4987 60.951 13.8907 60.951 13.016C60.951 12.12 61.1963 11.512 61.687 11.192C62.199 10.8507 62.8176 10.68 63.543 10.68ZM75.661 35H70.893V10.68H75.661V35Z" fill="#2E90FA"/>
<path d="M85.795 35H81.027V12.152H94.115V16.12H85.795V22.008H93.539V25.976H85.795V35ZM102.973 17.528V35H98.2055V17.528H102.973ZM100.605 10.68C101.309 10.68 101.917 10.8507 102.429 11.192C102.941 11.512 103.197 12.12 103.197 13.016C103.197 13.8907 102.941 14.4987 102.429 14.84C101.917 15.1813 101.309 15.352 100.605 15.352C99.8801 15.352 99.2615 15.1813 98.7495 14.84C98.2588 14.4987 98.0135 13.8907 98.0135 13.016C98.0135 12.12 98.2588 11.512 98.7495 11.192C99.2615 10.8507 99.8801 10.68 100.605 10.68Z" fill="#F04438"/>
</svg>
