<svg width="40" height="40" viewBox="0 0 40 40" fill="none" xmlns="http://www.w3.org/2000/svg">
<rect width="5.15223" height="5.15223" transform="matrix(0.866025 -0.5 0 1 20.8745 13.9062)" fill="#2E90FA"/>
<rect width="5.15223" height="5.15223" transform="matrix(0.866025 -0.5 0 1 26.166 10.9814)" fill="#2E90FA"/>
<rect width="5.15223" height="5.15223" transform="matrix(0.866025 -0.5 0 1 26.166 16.8994)" fill="#F04438"/>
<rect width="5.15223" height="5.15223" transform="matrix(0.866025 -0.5 0 1 31.4575 7.7793)" fill="#2E90FA"/>
<rect width="5.15223" height="5.15223" transform="matrix(-0.866025 -0.5 0.866025 -0.5 20.4629 13.2793)" fill="#2E90FA"/>
<rect width="5.15223" height="5.15223" transform="matrix(-0.866025 -0.5 0.866025 -0.5 15.1714 10.2158)" fill="#2E90FA"/>
<rect width="5.15223" height="5.15223" transform="matrix(-0.866025 -0.5 0.866025 -0.5 9.87988 7.15234)" fill="#2E90FA"/>
<rect width="5.15223" height="5.15223" transform="matrix(-0.866025 -0.5 0.866025 -0.5 25.7539 10.2158)" fill="#2E90FA"/>
<rect width="5.15223" height="5.15223" transform="matrix(-0.866025 -0.5 0.866025 -0.5 31.0454 7.15234)" fill="#2E90FA"/>
<rect width="5.15223" height="5.15223" transform="matrix(-0.866025 -0.5 0 1 20.0449 13.9062)" fill="#2E90FA"/>
<rect width="5.15223" height="5.15223" transform="matrix(-0.866025 -0.5 0 1 14.7534 10.8428)" fill="#2E90FA"/>
<rect width="5.15223" height="5.15223" transform="matrix(-0.866025 -0.5 0 1 14.7534 16.8301)" fill="#2E90FA"/>
<rect width="5.15223" height="5.15223" transform="matrix(-0.866025 -0.5 0 1 9.46191 7.7793)" fill="#2E90FA"/>
<rect width="5.15223" height="5.15223" transform="matrix(0.866025 -0.5 0 1 20.8745 19.8936)" fill="#2E90FA"/>
<rect width="5.15223" height="5.15223" transform="matrix(-0.866025 -0.5 0 1 20.0449 19.8936)" fill="#2E90FA"/>
<rect width="5.15223" height="5.15223" transform="matrix(0.866025 -0.5 0 1 20.8745 25.8809)" fill="#2E90FA"/>
<rect width="5.15223" height="5.15223" transform="matrix(-0.866025 -0.5 0 1 20.0449 25.8809)" fill="#2E90FA"/>
<path d="M8.37842 35.9072H9.07466V36.6035H8.37842V35.9072Z" fill="#2E90FA"/>
<path d="M8.37842 36.9561H9.07466V37.6523H8.37842V36.9561Z" fill="#2E90FA"/>
<path d="M9.31592 37.3042C9.31592 37.1119 9.47178 36.9561 9.66404 36.9561C9.8563 36.9561 10.0122 37.1119 10.0122 37.3042C10.0122 37.4964 9.8563 37.6523 9.66404 37.6523C9.47178 37.6523 9.31592 37.4964 9.31592 37.3042Z" fill="#2E90FA"/>
<path d="M9.31592 35.9072H10.0122V36.6035H9.31592V35.9072Z" fill="#2E90FA"/>
<path d="M8.37842 38.0059H9.07466V38.7021H8.37842V38.0059Z" fill="#2E90FA"/>
<path d="M14.4683 36.2553C14.4683 36.0631 14.6241 35.9072 14.8164 35.9072C15.0086 35.9072 15.1645 36.0631 15.1645 36.2553C15.1645 36.4476 15.0086 36.6035 14.8164 36.6035C14.6241 36.6035 14.4683 36.4476 14.4683 36.2553Z" fill="#2E90FA"/>
<path d="M14.4683 36.9561H15.1645V37.6523H14.4683V36.9561Z" fill="#2E90FA"/>
<path d="M14.4683 38.0059H15.1645V38.7021H14.4683V38.0059Z" fill="#2E90FA"/>
<path d="M19.6206 35.9072H20.3169V36.6035H19.6206V35.9072Z" fill="#2E90FA"/>
<path d="M19.6206 36.9561H20.3169V37.6523H19.6206V36.9561Z" fill="#2E90FA"/>
<path d="M19.6206 38.0059H20.3169V38.7021H19.6206V38.0059Z" fill="#2E90FA"/>
<path d="M20.6025 38.354C20.6025 38.1617 20.7584 38.0059 20.9507 38.0059C21.1429 38.0059 21.2988 38.1617 21.2988 38.354C21.2988 38.5462 21.1429 38.7021 20.9507 38.7021C20.7584 38.7021 20.6025 38.5462 20.6025 38.354Z" fill="#2E90FA"/>
<path d="M25.7549 35.9072H26.4511V36.6035H25.7549V35.9072Z" fill="#2E90FA"/>
<path d="M25.7549 36.9561H26.4511V37.6523H25.7549V36.9561Z" fill="#2E90FA"/>
<path d="M26.6924 37.3042C26.6924 37.1119 26.8482 36.9561 27.0405 36.9561C27.2328 36.9561 27.3886 37.1119 27.3886 37.3042C27.3886 37.4964 27.2328 37.6523 27.0405 37.6523C26.8482 37.6523 26.6924 37.4964 26.6924 37.3042Z" fill="#2E90FA"/>
<path d="M26.6924 35.9072H27.3886V36.6035H26.6924V35.9072Z" fill="#2E90FA"/>
<path d="M25.7549 38.0059H26.4511V38.7021H25.7549V38.0059Z" fill="#2E90FA"/>
<path d="M31.8442 36.2553C31.8442 36.0631 32.0001 35.9072 32.1924 35.9072C32.3846 35.9072 32.5405 36.0631 32.5405 36.2553C32.5405 36.4476 32.3846 36.6035 32.1924 36.6035C32.0001 36.6035 31.8442 36.4476 31.8442 36.2553Z" fill="#2E90FA"/>
<path d="M31.8442 36.9561H32.5405V37.6523H31.8442V36.9561Z" fill="#2E90FA"/>
<path d="M31.8442 38.0059H32.5405V38.7021H31.8442V38.0059Z" fill="#2E90FA"/>
</svg>
