<svg width="106" height="48" viewBox="0 0 106 48" fill="none" xmlns="http://www.w3.org/2000/svg">
<rect width="5.15223" height="5.15223" transform="matrix(0.866025 -0.5 0 1 15.874 21.3889)" fill="#2E90FA"/>
<rect width="5.15223" height="5.15223" transform="matrix(0.866025 -0.5 0 1 21.166 18.4646)" fill="#2E90FA"/>
<rect width="5.15223" height="5.15223" transform="matrix(0.866025 -0.5 0 1 21.166 24.3828)" fill="#F04438"/>
<rect width="5.15223" height="5.15223" transform="matrix(0.866025 -0.5 0 1 26.457 15.262)" fill="#2E90FA"/>
<rect width="5.15223" height="5.15223" transform="matrix(-0.866025 -0.5 0.866025 -0.5 15.4629 20.7622)" fill="#2E90FA"/>
<rect width="5.15223" height="5.15223" transform="matrix(-0.866025 -0.5 0.866025 -0.5 10.1709 17.6987)" fill="#2E90FA"/>
<rect width="5.15223" height="5.15223" transform="matrix(-0.866025 -0.5 0.866025 -0.5 4.87988 14.6355)" fill="#2E90FA"/>
<rect width="5.15223" height="5.15223" transform="matrix(-0.866025 -0.5 0.866025 -0.5 20.7539 17.6987)" fill="#2E90FA"/>
<rect width="5.15223" height="5.15223" transform="matrix(-0.866025 -0.5 0.866025 -0.5 26.0459 14.6355)" fill="#2E90FA"/>
<rect width="5.15223" height="5.15223" transform="matrix(-0.866025 -0.5 0 1 15.0449 21.3889)" fill="#2E90FA"/>
<rect width="5.15223" height="5.15223" transform="matrix(-0.866025 -0.5 0 1 9.75391 18.3254)" fill="#2E90FA"/>
<rect width="5.15223" height="5.15223" transform="matrix(-0.866025 -0.5 0 1 9.75391 24.3132)" fill="#2E90FA"/>
<rect width="5.15223" height="5.15223" transform="matrix(-0.866025 -0.5 0 1 4.46191 15.262)" fill="#2E90FA"/>
<rect width="5.15223" height="5.15223" transform="matrix(0.866025 -0.5 0 1 15.874 27.3767)" fill="#2E90FA"/>
<rect width="5.15223" height="5.15223" transform="matrix(-0.866025 -0.5 0 1 15.0449 27.3767)" fill="#2E90FA"/>
<rect width="5.15223" height="5.15223" transform="matrix(0.866025 -0.5 0 1 15.874 33.3645)" fill="#2E90FA"/>
<rect width="5.15223" height="5.15223" transform="matrix(-0.866025 -0.5 0 1 15.0449 33.3645)" fill="#2E90FA"/>
<path d="M48.733 35H43.965V12.152H57.053V16.12H48.733V22.008H56.477V25.976H48.733V35ZM65.9115 17.528V35H61.1435V17.528H65.9115ZM63.5435 10.68C64.2475 10.68 64.8555 10.8507 65.3675 11.192C65.8795 11.512 66.1355 12.12 66.1355 13.016C66.1355 13.8907 65.8795 14.4987 65.3675 14.84C64.8555 15.1813 64.2475 15.352 63.5435 15.352C62.8181 15.352 62.1995 15.1813 61.6875 14.84C61.1968 14.4987 60.9515 13.8907 60.9515 13.016C60.9515 12.12 61.1968 11.512 61.6875 11.192C62.1995 10.8507 62.8181 10.68 63.5435 10.68ZM75.6615 35H70.8935V10.68H75.6615V35Z" fill="#2E90FA"/>
<path d="M85.7955 35H81.0275V12.152H94.1155V16.12H85.7955V22.008H93.5395V25.976H85.7955V35ZM102.974 17.528V35H98.206V17.528H102.974ZM100.606 10.68C101.31 10.68 101.918 10.8507 102.43 11.192C102.942 11.512 103.198 12.12 103.198 13.016C103.198 13.8907 102.942 14.4987 102.43 14.84C101.918 15.1813 101.31 15.352 100.606 15.352C99.8806 15.352 99.262 15.1813 98.75 14.84C98.2593 14.4987 98.014 13.8907 98.014 13.016C98.014 12.12 98.2593 11.512 98.75 11.192C99.262 10.8507 99.8806 10.68 100.606 10.68Z" fill="#F04438"/>
</svg>
