<svg width="32" height="32" viewBox="0 0 32 32" fill="none" xmlns="http://www.w3.org/2000/svg">
<g clip-path="url(#clip0_1776_59968)">
<path fill-rule="evenodd" clip-rule="evenodd" d="M16 31.9998C7.2 31.9998 0 24.7998 0 15.9198C0.08 7.11984 7.2 -0.0801637 16.08 -0.000163689C24.88 0.0798363 32 7.19984 32 16.1598C31.92 24.8798 24.8 31.9998 16 31.9998Z" fill="#0090FF"/>
<path fill-rule="evenodd" clip-rule="evenodd" d="M17.5203 14.08L17.0403 16.64L21.6003 17.28L21.2803 18.48L16.8003 17.84C16.4803 18.88 16.3203 20 15.9203 20.96C15.5203 22.08 15.1203 23.2 14.6403 24.24C14.0003 25.6 12.8803 26.56 11.3603 26.8C10.4803 26.96 9.52031 26.88 8.80031 26.32C8.56031 26.16 8.32031 25.84 8.32031 25.6C8.32031 25.28 8.48031 24.88 8.72031 24.72C8.88031 24.64 9.28031 24.72 9.52031 24.8C9.76031 25.04 10.0003 25.36 10.1603 25.68C10.6403 26.32 11.2803 26.4 11.9203 25.92C12.6403 25.28 13.0403 24.4 13.2803 23.52C13.7603 21.6 14.2403 19.76 14.6403 17.84V17.52L10.4003 16.88L10.5603 15.68L14.9603 16.32L15.5203 13.84L10.9603 13.12L11.1203 11.84L15.8403 12.48C16.0003 12 16.0803 11.6 16.2403 11.2C16.6403 9.76001 17.0403 8.32001 18.0003 7.04001C18.9603 5.76001 20.0803 4.96001 21.7603 5.04001C22.4803 5.04001 23.2003 5.28001 23.6803 5.84001C23.7603 5.92001 23.9203 6.08001 23.9203 6.24001C23.9203 6.56001 23.9203 6.96001 23.6803 7.20001C23.3603 7.44001 22.9603 7.36001 22.6403 7.04001C22.4003 6.80001 22.2403 6.56001 22.0003 6.32001C21.5203 5.68001 20.8003 5.60001 20.2403 6.16001C19.8403 6.56001 19.4403 7.12001 19.2003 7.68001C18.6403 9.36001 18.2403 11.12 17.6803 12.88L22.0803 13.52L21.7603 14.72L17.5203 14.08Z" fill="white"/>
</g>
<defs>
<clipPath id="clip0_1776_59968">
<rect width="32" height="32" fill="white"/>
</clipPath>
</defs>
</svg>
