<svg width="32" height="32" viewBox="0 0 32 32" fill="none" xmlns="http://www.w3.org/2000/svg">
<g clip-path="url(#clip0_1786_59991)">
<circle cx="16" cy="16" r="16" fill="white"/>
<path d="M10.0004 7.96637H21.641L20.6743 11.4216H12.8581L12.027 14.3923H15.5397L14.6313 17.6391H11.1186L9.32597 24.0178H5.50165L10.0004 7.96637Z" fill="#346EE7"/>
<path d="M7.46596 7.96637H20.3737L19.407 11.4216H10.3236L7.46596 7.96637Z" fill="#346EE7"/>
<path d="M4.12891 24.0178H7.63263L6.87317 21.3032H6.37405L4.12891 24.0178Z" fill="#346EE7"/>
<path d="M22.0351 24.06H10.3945L11.3612 20.6049H19.1774L20.0085 17.6341H16.4958L17.4042 14.3873H20.9169L22.7095 8.00861H26.5338L22.0351 24.06Z" fill="#4C8EF3"/>
<path d="M24.5695 24.06H11.6618L12.6284 20.6049H21.7119L24.5695 24.06Z" fill="#4C8EF3"/>
<path d="M27.9066 8.00861H24.4029L25.1623 10.7232H25.6614L27.9066 8.00861Z" fill="#4C8EF3"/>
</g>
<defs>
<clipPath id="clip0_1786_59991">
<rect width="32" height="32" fill="white"/>
</clipPath>
</defs>
</svg>
