<svg width="40" height="40" viewBox="0 0 40 40" fill="none" xmlns="http://www.w3.org/2000/svg">
<rect width="40" height="40" rx="20" fill="#BCE0FD"/>
<path fill-rule="evenodd" clip-rule="evenodd" d="M19.7619 10.9073C19.9199 10.8844 20.0805 10.8844 20.2386 10.9073C20.4208 10.9336 20.5903 10.9976 20.7249 11.0485L20.761 11.0621L25.338 12.7784C25.8528 12.9706 26.305 13.1394 26.6531 13.4462C26.9577 13.7146 27.1924 14.0532 27.3368 14.4327C27.5018 14.8664 27.5011 15.349 27.5003 15.8986L27.5002 20.0001C27.5002 22.3557 26.2191 24.3195 24.8343 25.7621C23.4403 27.2145 21.8452 28.2403 21.0018 28.7323L20.9677 28.7523C20.8137 28.8427 20.614 28.96 20.3497 29.0167C20.1335 29.0631 19.867 29.0631 19.6508 29.0167C19.3865 28.96 19.1867 28.8427 19.0328 28.7523L18.9986 28.7323C18.1552 28.2403 16.5602 27.2145 15.1661 25.7621C13.7813 24.3195 12.5002 22.3557 12.5002 20.0001L12.5001 15.8986C12.4993 15.349 12.4986 14.8664 12.6637 14.4327C12.8081 14.0532 13.0427 13.7146 13.3473 13.4462C13.6955 13.1394 14.1476 12.9706 14.6624 12.7784L19.2395 11.0621L19.2755 11.0485C19.4101 10.9976 19.5797 10.9336 19.7619 10.9073ZM20.8335 15C20.8335 14.5398 20.4604 14.1667 20.0002 14.1667C19.54 14.1667 19.1669 14.5398 19.1669 15V15.4167C17.7862 15.4167 16.6669 16.536 16.6669 17.9167C16.6669 19.2974 17.7862 20.4167 19.1669 20.4167H20.8335C21.2938 20.4167 21.6669 20.7898 21.6669 21.25C21.6669 21.7103 21.2938 22.0834 20.8335 22.0834H19.0558C18.7791 22.0834 18.5374 21.928 18.4155 21.6959C18.2015 21.2885 17.6977 21.1316 17.2902 21.3456C16.8828 21.5596 16.7259 22.0634 16.9399 22.4708C17.3383 23.2295 18.1356 23.75 19.0558 23.75H19.1669V24.1667C19.1669 24.6269 19.54 25 20.0002 25C20.4604 25 20.8335 24.6269 20.8335 24.1667V23.75C22.2142 23.75 23.3335 22.6308 23.3335 21.25C23.3335 19.8693 22.2142 18.75 20.8335 18.75H19.1669C18.7066 18.75 18.3335 18.3769 18.3335 17.9167C18.3335 17.4565 18.7066 17.0834 19.1669 17.0834H20.9446C21.2213 17.0834 21.4631 17.2387 21.585 17.4708C21.7989 17.8783 22.3027 18.0351 22.7102 17.8212C23.1177 17.6072 23.2745 17.1034 23.0605 16.6959C22.6621 15.9372 21.8648 15.4167 20.9446 15.4167H20.8335V15Z" fill="#2699FB"/>
</svg>
