<svg width="40" height="40" viewBox="0 0 40 40" fill="none" xmlns="http://www.w3.org/2000/svg">
<rect width="40" height="40" rx="20" fill="#BCE0FD"/>
<path fill-rule="evenodd" clip-rule="evenodd" d="M19.168 26.6667C19.168 26.2064 19.5411 25.8333 20.0014 25.8333H27.5014C27.9616 25.8333 28.3347 26.2064 28.3347 26.6667C28.3347 27.1269 27.9616 27.5 27.5014 27.5H20.0014C19.5411 27.5 19.168 27.1269 19.168 26.6667Z" fill="#2699FB"/>
<path fill-rule="evenodd" clip-rule="evenodd" d="M23.1622 12.3274C24.1779 11.3116 25.8249 11.3116 26.8407 12.3274C27.8565 13.3432 27.8565 14.9901 26.8407 16.0059L16.3717 26.4749C16.3552 26.4914 16.3389 26.5077 16.3227 26.524C16.0831 26.764 15.8719 26.9756 15.6173 27.1316C15.3936 27.2687 15.1498 27.3697 14.8947 27.4309C14.6043 27.5006 14.3053 27.5003 13.9663 27.5C13.9433 27.5 13.9202 27.5 13.8968 27.5H12.5014C12.0411 27.5 11.6681 27.1269 11.6681 26.6667V25.2712C11.6681 25.2479 11.668 25.2248 11.668 25.2018C11.6677 24.8627 11.6674 24.5638 11.7371 24.2734C11.7984 24.0183 11.8994 23.7744 12.0365 23.5508C12.1925 23.2961 12.4041 23.0849 12.6441 22.8454C12.6603 22.8292 12.6767 22.8128 12.6932 22.7963L23.1622 12.3274Z" fill="#2699FB"/>
</svg>
