<svg width="40" height="40" viewBox="0 0 40 40" fill="none" xmlns="http://www.w3.org/2000/svg">
<rect width="40" height="40" rx="20" fill="#BCE0FD"/>
<path d="M22.6925 12.2647C24.4216 11.3137 26.3652 10.8209 28.3385 10.8331C28.7967 10.836 29.1666 11.2082 29.1666 11.6664C29.1666 14.0083 28.5097 18.0895 24.2896 21.1803C24.3607 21.4783 24.4414 21.8705 24.4973 22.3039C24.5582 22.7767 24.5925 23.3209 24.5427 23.8565C24.4936 24.3849 24.3572 24.9664 24.0267 25.4622L24.0259 25.4633C23.4601 26.3091 22.3931 26.7994 21.6477 27.0698C21.2471 27.2151 20.877 27.3182 20.6077 27.385C20.4048 27.4353 20.2558 27.4659 20.1883 27.4791C19.9315 27.5279 19.6698 27.4765 19.4659 27.3063C19.2762 27.148 19.1666 26.9137 19.1666 26.6666V22.8449L17.155 20.8333H13.3333C13.0862 20.8333 12.8519 20.7237 12.6936 20.534C12.5352 20.3444 12.4692 20.0942 12.5134 19.8511C12.5415 19.6971 12.5773 19.5442 12.615 19.3922C12.6818 19.1229 12.7848 18.7528 12.9301 18.3523C13.2005 17.6069 13.6908 16.5398 14.5366 15.974L14.5377 15.9733C15.0335 15.6427 15.615 15.5063 16.1434 15.4572C16.679 15.4074 17.2232 15.4417 17.6961 15.5026C18.134 15.5591 18.5299 15.641 18.8289 15.7125C19.838 14.2884 21.1581 13.1086 22.6925 12.2647Z" fill="#2699FB"/>
<path fill-rule="evenodd" clip-rule="evenodd" d="M15.0026 22.4902C14.3499 22.4701 13.7128 22.6915 13.2135 23.1122C12.7745 23.4811 12.4522 23.9893 12.2134 24.4781C11.9699 24.9766 11.7849 25.5145 11.6467 25.9977C11.5077 26.4836 11.4111 26.9317 11.3492 27.2577C11.3182 27.4212 11.2956 27.5554 11.2806 27.65C11.2724 27.7014 11.2648 27.7529 11.2575 27.8044L11.2574 27.8057C11.223 28.0631 11.3104 28.3221 11.494 28.5057C11.6777 28.6894 11.9371 28.7768 12.1944 28.7424C12.2463 28.7351 12.298 28.7274 12.3497 28.7192C12.4444 28.7042 12.5786 28.6816 12.7421 28.6506C13.0681 28.5887 13.5162 28.4921 14.0021 28.3531C14.4853 28.2149 15.0232 28.0299 15.5217 27.7864C16.0103 27.5477 16.5183 27.2255 16.8872 26.7868C17.7381 25.7791 17.7508 24.2096 16.7605 23.2318L16.7503 23.222C16.2778 22.771 15.6554 22.5104 15.0026 22.4902Z" fill="#2699FB"/>
</svg>
