<svg width="56" height="56" viewBox="0 0 56 56" fill="none" xmlns="http://www.w3.org/2000/svg">
<rect x="4" y="4" width="48" height="48" rx="24" fill="#BCE0FD"/>
<path d="M27.302 37.6149C27.5234 37.744 27.6341 37.8086 27.7903 37.8421C27.9116 37.8681 28.0884 37.8681 28.2097 37.8421C28.3659 37.8086 28.4766 37.744 28.698 37.6149C30.646 36.4784 36 32.9084 36 28V23.2176C36 22.4181 36 22.0183 35.8692 21.6747C35.7537 21.3711 35.566 21.1003 35.3223 20.8855C35.0465 20.6424 34.6722 20.5021 33.9236 20.2213L28.5618 18.2107C28.3539 18.1327 28.25 18.0937 28.143 18.0783C28.0482 18.0646 27.9518 18.0646 27.857 18.0783C27.75 18.0937 27.6461 18.1327 27.4382 18.2107L22.0764 20.2213C21.3278 20.5021 20.9535 20.6424 20.6777 20.8855C20.434 21.1003 20.2463 21.3711 20.1308 21.6747C20 22.0183 20 22.4181 20 23.2176V28C20 32.9084 25.354 36.4784 27.302 37.6149Z" stroke="#2699FB" stroke-width="2" stroke-linecap="round" stroke-linejoin="round"/>
<rect x="4" y="4" width="48" height="48" rx="24" stroke="#F1F9FF" stroke-width="8"/>
</svg>
