<svg width="40" height="40" viewBox="0 0 40 40" fill="none" xmlns="http://www.w3.org/2000/svg">
<rect width="40" height="40" rx="20" fill="#BCE0FD"/>
<path d="M19.4025 12.8778C19.5946 12.4887 19.6906 12.2941 19.821 12.232C19.9344 12.1779 20.0662 12.1779 20.1797 12.232C20.31 12.2941 20.4061 12.4887 20.5981 12.8778L22.4204 16.5694C22.4771 16.6843 22.5054 16.7418 22.5469 16.7864C22.5836 16.8258 22.6276 16.8578 22.6764 16.8806C22.7316 16.9062 22.795 16.9155 22.9218 16.934L26.9978 17.5298C27.427 17.5925 27.6417 17.6239 27.741 17.7287C27.8274 17.82 27.868 17.9453 27.8516 18.0699C27.8327 18.213 27.6773 18.3644 27.3666 18.667L24.4182 21.5387C24.3263 21.6282 24.2803 21.673 24.2507 21.7263C24.2244 21.7734 24.2076 21.8252 24.2011 21.8788C24.1937 21.9393 24.2046 22.0025 24.2263 22.129L24.922 26.1851C24.9953 26.6129 25.032 26.8269 24.9631 26.9538C24.9031 27.0642 24.7965 27.1417 24.6729 27.1646C24.5308 27.1909 24.3388 27.0899 23.9546 26.8879L20.3106 24.9716C20.1971 24.9119 20.1403 24.882 20.0805 24.8703C20.0276 24.8599 19.9731 24.8599 19.9202 24.8703C19.8603 24.882 19.8036 24.9119 19.69 24.9716L16.0461 26.8879C15.6619 27.0899 15.4698 27.1909 15.3278 27.1646C15.2042 27.1417 15.0976 27.0642 15.0376 26.9538C14.9687 26.8269 15.0053 26.6129 15.0787 26.1851L15.7744 22.129C15.7961 22.0025 15.8069 21.9393 15.7996 21.8788C15.7931 21.8252 15.7763 21.7734 15.75 21.7263C15.7203 21.673 15.6744 21.6282 15.5825 21.5387L12.6341 18.667C12.3234 18.3644 12.168 18.213 12.1491 18.0699C12.1326 17.9453 12.1733 17.82 12.2597 17.7287C12.359 17.6239 12.5736 17.5925 13.0029 17.5298L17.0789 16.934C17.2057 16.9155 17.2691 16.9062 17.3243 16.8806C17.3731 16.8578 17.4171 16.8258 17.4538 16.7864C17.4952 16.7418 17.5236 16.6843 17.5803 16.5694L19.4025 12.8778Z" stroke="#2699FB" stroke-width="1.66667" stroke-linecap="round" stroke-linejoin="round"/>
</svg>
