<svg width="40" height="40" viewBox="0 0 40 40" fill="none" xmlns="http://www.w3.org/2000/svg">
<rect width="40" height="40" rx="20" fill="#BCE0FD"/>
<path d="M23.0257 16.3596C22.6957 16.0295 22.5307 15.8645 22.4688 15.6743C22.4145 15.5069 22.4145 15.3266 22.4688 15.1592C22.5307 14.969 22.6957 14.804 23.0257 14.4739L25.391 12.1086C24.7633 11.8248 24.0665 11.6667 23.3329 11.6667C20.5714 11.6667 18.3329 13.9053 18.3329 16.6667C18.3329 17.0759 18.382 17.4737 18.4748 17.8543C18.5741 18.2619 18.6237 18.4658 18.6149 18.5945C18.6057 18.7293 18.5856 18.801 18.5234 18.921C18.464 19.0356 18.3503 19.1494 18.1227 19.3769L12.9162 24.5834C12.2258 25.2738 12.2258 26.3931 12.9162 27.0834C13.6066 27.7738 14.7258 27.7738 15.4162 27.0834L20.6227 21.8769C20.8503 21.6494 20.964 21.5356 21.0786 21.4762C21.1986 21.4141 21.2703 21.394 21.4051 21.3847C21.5339 21.3759 21.7377 21.4256 22.1453 21.5249C22.526 21.6176 22.9237 21.6667 23.3329 21.6667C26.0943 21.6667 28.3329 19.4282 28.3329 16.6667C28.3329 15.9331 28.1749 15.2363 27.891 14.6086L25.5257 16.9739C25.1957 17.304 25.0307 17.469 24.8404 17.5308C24.673 17.5852 24.4927 17.5852 24.3254 17.5308C24.1351 17.469 23.9701 17.304 23.6401 16.9739L23.0257 16.3596Z" stroke="#2699FB" stroke-width="1.66667" stroke-linecap="round" stroke-linejoin="round"/>
</svg>
